<svg viewBox="0 0 100 100" xmlns="http://www.w3.org/2000/svg">

    <symbol id="logo">
        <svg viewBox="0 0 511 511" xmlns="http://www.w3.org/2000/svg">
            <path d="M509.762 266.524c.152-3.53.238-7.212.238-11.024C510 114.667 395.833.5 255 .5 156.869.5 96.426 55.847 96.259 55.941c-3.787 17.481-10.374 42.85-10.374 61.465 0 55.684 18.579 107.185 49.736 149.118z" fill="#2896ff"/>
            <path d="M90.459 110.179c0-18.615 2.013-36.757 5.801-54.239l-.017.014C37.597 102.675 0 174.692 0 255.5l144.012 11.024c-33.56-43.178-53.553-97.424-53.553-156.345z" fill="#1e87dc"/>
            <path d="M107.689 388.736l-23.256 57.22C129.496 486.104 188.899 510.5 254 510.5c91.383 0 172.401-48.335 217.471-121.764z" fill="#a0a0a5"/>
            <g>
                <path d="M84.434 445.956h11.203c9.399 0 17.019-7.62 17.019-17.019v-41.439H35.778a256.258 256.258 0 0048.656 58.458zM423.018 387.497v47.071h60.687c.62-1.765.974-3.655.974-5.631v-41.439h-61.661z" fill="#50555a"/>
                <path d="M440.135 433.185c-9.399 0-17.019-7.62-17.019-17.019v-28.669h-27.611v41.439c0 9.399 7.62 17.019 17.019 17.019h55.136c7.93 0 14.573-5.431 16.463-12.771h-43.988z" fill="#373c41"/>
                <path d="M367.622 70.764H142.493a38.787 38.787 0 00-36.645 26.077L63.15 219.943h382.886L404.352 97.088c-5.34-15.737-20.112-26.324-36.73-26.324z" fill="#afe6ff"/>
                <path d="M150.602 176.747l36.759-105.984h-44.869a38.787 38.787 0 00-36.645 26.077L63.15 219.943h382.886l-14.656-43.196z" fill="#73c8f0"/>
                <path d="M216.07 178.231l64.823-95.332h-65.735l-64.823 95.332z" fill="#d2f0ff"/>
                <path d="M190.164 216.33l26.914-39.583h-65.735l-26.914 39.583z" fill="#afe6ff"/>
                <path d="M308.1 178.231l64.823-95.332h-54.734l-64.823 95.332z" fill="#d2f0ff"/>
                <path d="M309.109 176.747h-54.734L227.46 216.33h54.734z" fill="#afe6ff"/>
                <path d="M37.135 225.663h36.519v-52.347H37.135c-14.455 0-26.173 11.718-26.173 26.173 0 14.456 11.718 26.174 26.173 26.174z" fill="#be1423"/>
                <path d="M435.533 225.663h36.519c14.455 0 26.173-11.718 26.173-26.173 0-14.455-11.718-26.173-26.173-26.173h-36.519z" fill="#dc1428"/>
                <path d="M392.9 101.169l34.023 100.274 12.891 14.843 14.088-10.708-38.066-112.191c-5.749-16.944-21.654-28.343-39.547-28.343h-68.952l-23.501 5.368-18.884-5.368h-22.115l-21.193 5.72-21.193-5.72h-19.633v24.22h19.633l21.193-4.76 21.193 4.76h22.115l21.193-6.365 21.193 6.365h68.952a17.534 17.534 0 0116.61 11.905z" fill="#ff3c3c"/>
                <path d="M99.672 201.443H82.506l34.818-100.386a17.542 17.542 0 0116.573-11.793h47.38c6.688 0 12.11-5.422 12.11-12.11s-5.422-12.11-12.11-12.11h-47.38c-17.789 0-33.626 11.269-39.455 28.077L48.47 225.663h51.202z" fill="#dc1428"/>
                <path d="M357.717 326.699a30.49 30.49 0 013.209 12.336c.672 14.997-13.244 27.77-27.77 27.77h-188.89v.302c0 23.662 19.182 42.843 42.843 42.843h275.769c26.577 0 48.121-21.545 48.121-48.121V321.02z" fill="#373c41"/>
                <path d="M145.305 366.805H24.521a255.006 255.006 0 0026.558 43.145h142.092c-24.896 0-45.375-18.907-47.866-43.145z" fill="#212426"/>
                <path d="M439.095 323.684v86.266h23.784c26.577 0 48.121-21.544 48.121-48.121V321.02z" fill="#373c41"/>
                <path d="M492.897 232.689l-42.195-31.723H307.337l-21.193 6.4-21.193-6.4h-22.115l-21.193 9.042-21.193-9.042h-99.34v138.923h408.05a42.768 42.768 0 001.84-12.425v-58.516a45.372 45.372 0 00-18.103-36.259z" fill="#ff3c3c"/>
                <g fill="#dc1428">
                <path d="M465.153 370.544c3.253.035 6.84.028 0 0zM145.242 338.347c-23.64 0-42.804-19.164-42.804-42.805v-58.516a45.358 45.358 0 0117.854-36.06H58.485L16.29 232.689C7.267 239.473 1.891 246.201 0 255.5c.689 38.265 8.848 79.152 24.616 111.524a42.681 42.681 0 0016.375 3.245c61.401 0 114.159.007 159.458.019l18.652-8.353 23.734 8.367 22.115.009 21.193-8.377 21.193 8.399c109.042.066 146.844.165 157.816.21-3.461-.037-6.544-.123 3.708-.281 19.529-.296 35.962-13.692 40.74-31.916H145.242z"/>
                </g>
                <path d="M200.45 200.966h42.386v169.302H200.45zM264.951 200.966h42.386v169.302h-42.386z" fill="#fff"/>
                <path d="M336.833 256.696H190.945v29.909h166.433a21.957 21.957 0 001.466-7.898c0-12.157-9.854-22.011-22.011-22.011z" fill="#dc1428"/>
                <path d="M214.282 285.617c-12.156 0-22.011-9.854-22.011-22.011 0-2.415.395-4.737 1.113-6.911h-21.031c-12.156 0-22.011 9.855-22.011 22.011 0 12.156 9.854 22.011 22.011 22.011h164.48c9.741 0 17.999-6.331 20.897-15.1z" fill="#be1423"/>
                <path d="M129.587 313.297H51.819c-8.97 0-16.241-7.271-16.241-16.241v-13.118c0-8.97 7.271-16.241 16.241-16.241h41.629c12.064 0 32.145 23.216 36.139 34.599zM379.6 313.297h77.768c8.97 0 16.241-7.271 16.241-16.241v-13.118c0-8.97-7.271-16.241-16.241-16.241h-41.629c-12.064 0-32.145 23.216-36.139 34.599z" fill="#dc1428"/>
                <path d="M129.587 302.296H51.819c-8.97 0-16.241-7.271-16.241-16.241v-13.118c0-8.97 7.271-16.241 16.241-16.241h41.629a28.408 28.408 0 0126.806 19.002zM379.6 302.296h77.768c8.97 0 16.241-7.271 16.241-16.241v-13.118c0-8.97-7.271-16.241-16.241-16.241h-41.629a28.408 28.408 0 00-26.806 19.002z" fill="#afe6ff"/>
                <path d="M335.722 315.733h-92.329v12h92.329a6 6 0 000-12zM335.722 338.735h-92.329v12h92.329a6 6 0 000-12z" fill="#50555a"/>
                <g>
                <path d="M246.721 327.733h-73.256a6 6 0 010-12h73.256a6 6 0 010 12z" fill="#373c41"/>
                </g>
                <g>
                <path d="M246.721 350.735h-73.256a6 6 0 010-12h73.256a6 6 0 010 12z" fill="#373c41"/>
                </g>
                <g>
                <path d="M200.45 65.044h42.386v24.22H200.45z" fill="#fff"/>
                </g>
                <g>
                <path d="M264.951 65.044h42.386v24.22h-42.386z" fill="#fff"/>
                </g>
            </g>
        </svg>
    </symbol>
</svg>